<svg xmlns="http://www.w3.org/2000/svg" viewBox="0 0 24 24">
  <!-- Gear teeth (8 teeth via outer polygon) -->
  <path fill="currentColor" d="M12 15.5a3.5 3.5 0 1 1 0-7 3.5 3.5 0 0 1 0 7zm7.43-2.37a7.19 7.19 0 0 0 .07-1.13 7.19 7.19 0 0 0-.07-1.13l2.44-1.9a.58.58 0 0 0 .14-.74l-2.31-4a.58.58 0 0 0-.7-.25l-2.88 1.16a7.38 7.38 0 0 0-1.95-1.13L14.76 1.6A.56.56 0 0 0 14.21 1h-4.62a.56.56 0 0 0-.55.46l-.43 3.05a7.38 7.38 0 0 0-1.95 1.13L3.78 4.48a.57.57 0 0 0-.7.25l-2.31 4a.57.57 0 0 0 .14.74l2.44 1.9a7.31 7.31 0 0 0 0 2.26l-2.44 1.9a.58.58 0 0 0-.14.74l2.31 4a.57.57 0 0 0 .7.25l2.88-1.16c.61.44 1.26.8 1.95 1.13l.43 3.05c.07.27.3.46.55.46h4.62c.26 0 .49-.19.55-.46l.43-3.05a7.38 7.38 0 0 0 1.95-1.13l2.88 1.16a.57.57 0 0 0 .7-.25l2.31-4a.58.58 0 0 0-.14-.74l-2.44-1.9z"/>
</svg>
